#N canvas 392 25 962 518 12;
#X obj 62 98 cnv 15 400 100 empty empty CONVERT_PD_MESSAGE_TO_BYTES(LIST)
0 -10 0 14 -203904 -66577 0;
#X obj 529 225 cnv 15 400 260 empty empty CONVERT_BYTES(LIST)_TO_PD_MESSAGE
0 -10 0 14 -203904 -66577 0;
#X obj 519 86 cnv 15 200 60 empty empty RECEIVE_BYTES(LIST)_FROM_UDP
0 -10 0 14 -262130 -66577 0;
#X obj 565 121 bng 15 250 50 0 empty empty data 17 7 0 10 -262144 -1
-1;
#X obj 542 416 spigot;
#X obj 580 392 tgl 15 0 empty empty empty 17 7 0 10 -262144 -1 -1 0
1;
#X obj 541 460 print debug;
#X obj 56 239 cnv 15 350 200 empty empty SEND_BYTES(LIST)_TO_UDP 0
-10 0 14 -262130 -66577 0;
#X obj 222 301 loadbang;
#X msg 222 365 disconnect;
#X msg 222 333 connect localhost 7001;
#X text 599 391 Print the message sent by the serial port;
#X obj 541 92 netreceive -u -b 7000;
#X obj 68 396 netsend -u -b;
#X obj 542 235 oscparse;
#X text 605 236 Convert raw OSC to PD message;
#X obj 542 264 list trim;
#X obj 68 251 list prepend send;
#X obj 68 277 list trim;
#X floatatom 601 341 5 0 0 0 - - -;
#X floatatom 658 341 5 0 0 0 - - -;
#X obj 715 344 tgl 15 0 empty empty empty 17 7 0 10 -262144 -1 -1 0
1;
#X obj 70 110 tgl 15 0 empty empty empty 17 7 0 10 -262144 -1 -1 0
1;
#X floatatom 275 110 5 0 255 0 - - -;
#X obj 601 307 route pot photo button;
#X obj 70 143 oscformat -f i led;
#X obj 275 142 oscformat -f i pwm;
#X text 584 284 WARNING: oscparse removes the / from the address;
#X text 68 164 WARNING: oscfornat automatically prefixes / to the address
;
#X text 64 5 This patcher was created by Thomas O Fredericks on 2023-02-19.
;
#X connect 4 0 6 0;
#X connect 5 0 4 1;
#X connect 8 0 10 0;
#X connect 9 0 13 0;
#X connect 10 0 13 0;
#X connect 12 0 3 0;
#X connect 12 0 14 0;
#X connect 14 0 16 0;
#X connect 16 0 4 0;
#X connect 16 0 24 0;
#X connect 17 0 18 0;
#X connect 18 0 13 0;
#X connect 22 0 25 0;
#X connect 23 0 26 0;
#X connect 24 0 19 0;
#X connect 24 1 20 0;
#X connect 24 2 21 0;
#X connect 25 0 17 0;
#X connect 26 0 17 0;
